<?xml version="1.0" encoding="UTF-8"?><svg id="Camada_2" xmlns="http://www.w3.org/2000/svg" viewBox="0 0 893.25 328.75"><defs><style>.cls-1{fill:#f98200;}.cls-2{fill:#fff;}</style></defs><g id="Camada_1-2"><polygon class="cls-2" points="451.29 51.63 415.02 51.63 406.44 60.21 397.86 51.63 378.5 51.63 378.5 203.61 423.52 203.61 423.52 106.79 464.98 65.32 451.29 51.63"/><path class="cls-2" d="M269.89,43.81c-45.69,0-82.73,37.04-82.73,82.73s37.04,82.73,82.73,82.73,82.73-37.04,82.73-82.73-37.04-82.73-82.73-82.73ZM269.89,164.26c-20.83,0-37.72-16.89-37.72-37.72s16.89-37.72,37.72-37.72,37.72,16.89,37.72,37.72-16.89,37.72-37.72,37.72Z"/><path class="cls-2" d="M893.22,124.16c-1.26-44.59-37.8-80.35-82.7-80.35s-82.73,37.04-82.73,82.73,37.04,82.73,82.73,82.73c19.35,0,37.15-6.65,51.25-17.78l12.12,12.12h19.36v-79.45h-.04ZM810.52,164.26c-20.83,0-37.72-16.89-37.72-37.72s16.89-37.72,37.72-37.72,37.72,16.89,37.72,37.72-16.89,37.72-37.72,37.72Z"/><polygon class="cls-2" points="194.65 .26 125.23 .26 53.72 101.86 52.27 101.86 .26 101.86 .26 205.51 57.08 205.51 57.08 108.69 125.23 205.51 194.65 205.51 122.42 102.89 194.65 .26"/><polygon class="cls-2" points="661.75 96.11 661.75 203.61 706.77 203.61 706.77 121.76 681.11 96.11 661.75 96.11"/><path class="cls-2" d="M589.64.26v52.62c-11.31-5.8-24.13-9.08-37.72-9.08-45.69,0-82.73,37.04-82.73,82.73s37.04,82.73,82.73,82.73c19.35,0,37.15-6.65,51.25-17.78l12.12,12.12h19.36V25.91L609,.26h-19.36ZM551.92,164.26c-20.83,0-37.72-16.89-37.72-37.72s16.89-37.72,37.72-37.72,37.72,16.89,37.72,37.72-16.89,37.72-37.72,37.72Z"/><circle class="cls-1" cx="28.67" cy="28.67" r="28.67" transform="translate(-7.42 47.15) rotate(-72.12)"/><circle class="cls-1" cx="684.26" cy="51.63" r="28.67" transform="translate(425.04 686.99) rotate(-72.12)"/><path class="cls-1" d="M111.98,269.67h24.96v8.32h-15.81v15.39h12.56v8.32h-12.56v17.89h15.81v8.32h-24.96v-58.25Z"/><path class="cls-1" d="M141.84,269.67h11.32l9.24,34.86v-34.86h8.15v58.25h-9.24l-11.32-42.52v42.52h-8.16v-58.25Z"/><path class="cls-1" d="M176.7,314.44v-31.29c0-8.99,4.66-14.31,13.48-14.31s13.48,5.33,13.48,14.31v6.16h-8.65v-6.74c0-3.83-1.83-5.41-4.58-5.41s-4.58,1.58-4.58,5.41v32.54c0,3.83,1.83,5.33,4.58,5.33s4.58-1.5,4.58-5.33v-8.49h8.65v7.82c0,8.99-4.66,14.31-13.48,14.31s-13.48-5.33-13.48-14.31Z"/><path class="cls-1" d="M208.57,314.11v-30.62c0-9.32,4.91-14.65,13.9-14.65s13.9,5.33,13.9,14.65v30.62c0,9.32-4.91,14.64-13.9,14.64s-13.9-5.33-13.9-14.64ZM227.2,314.69v-31.79c0-4.16-1.83-5.74-4.74-5.74s-4.74,1.58-4.74,5.74v31.79c0,4.16,1.83,5.74,4.74,5.74s4.74-1.58,4.74-5.74Z"/><path class="cls-1" d="M242.51,269.67h11.32l9.24,34.86v-34.86h8.16v58.25h-9.24l-11.32-42.52v42.52h-8.16v-58.25Z"/><path class="cls-1" d="M285.19,277.99h-9.57v-8.32h28.29v8.32h-9.57v49.93h-9.15v-49.93Z"/><path class="cls-1" d="M308.32,269.67h13.56c9.49,0,13.56,4.41,13.56,13.4v3.58c0,5.99-1.92,9.82-5.99,11.48v.17c4.58,1.41,6.08,5.74,6.08,12.32v10.23c0,2.83.08,4.91,1,7.07h-9.32c-.5-1.5-.83-2.41-.83-7.16v-10.65c0-5.41-1.58-7.16-5.74-7.16h-3.16v24.96h-9.15v-58.25ZM320.8,294.63c3.41,0,5.49-1.5,5.49-6.16v-4.49c0-4.16-1.41-5.99-4.66-5.99h-4.16v16.64h3.33Z"/><path class="cls-1" d="M360.15,316.52h-10.57l-1.58,11.4h-8.49l9.49-58.25h12.4l9.49,58.25h-9.15l-1.58-11.4ZM358.98,308.61l-4.16-29.37-4.08,29.37h8.24Z"/><path class="cls-2" d="M375.78,323.26c0-1.44.49-2.65,1.46-3.62.97-.97,2.15-1.46,3.53-1.46s2.65.49,3.62,1.46,1.46,2.18,1.46,3.62-.49,2.56-1.46,3.53c-.97.97-2.18,1.46-3.62,1.46s-2.56-.49-3.53-1.46c-.97-.97-1.46-2.15-1.46-3.53Z"/><path class="cls-1" d="M406.48,314.86v-32.12c0-8.74,4.66-13.9,12.98-13.9s12.98,5.16,12.98,13.9v5.99h-6.16v-6.41c0-4.99-2.58-7.57-6.66-7.57s-6.66,2.58-6.66,7.57v32.95c0,4.99,2.58,7.57,6.66,7.57s6.66-2.58,6.66-7.57v-8.16h6.16v7.74c0,8.65-4.57,13.9-12.98,13.9s-12.98-5.24-12.98-13.9Z"/><path class="cls-1" d="M438.43,314.36v-31.21c0-9.24,4.74-14.31,13.31-14.31s13.4,5.08,13.4,14.31v31.21c0,9.24-4.74,14.39-13.4,14.39s-13.31-5.16-13.31-14.39ZM458.65,314.77v-32.04c0-5.49-2.5-7.99-6.91-7.99s-6.82,2.5-6.82,7.99v32.04c0,5.57,2.5,8.07,6.82,8.07s6.91-2.5,6.91-8.07Z"/><path class="cls-1" d="M472.38,269.67h8.32l13.15,41.61v-41.61h5.91v58.25h-6.74l-14.73-47.35v47.35h-5.91v-58.25Z"/><path class="cls-1" d="M507.73,269.67h23.88v5.91h-17.39v18.97h14.15v5.91h-14.15v21.55h17.39v5.91h-23.88v-58.25Z"/><path class="cls-1" d="M536.68,314.86v-32.12c0-8.74,4.66-13.9,12.98-13.9s12.98,5.16,12.98,13.9v5.99h-6.16v-6.41c0-4.99-2.58-7.57-6.66-7.57s-6.66,2.58-6.66,7.57v32.95c0,4.99,2.58,7.57,6.66,7.57s6.66-2.58,6.66-7.57v-8.16h6.16v7.74c0,8.65-4.58,13.9-12.98,13.9s-12.98-5.24-12.98-13.9Z"/><path class="cls-1" d="M576.95,275.58h-10.32v-5.91h27.13v5.91h-10.32v52.34h-6.49v-52.34Z"/><path class="cls-1" d="M613.73,315.52h-13.48l-2.16,12.4h-6.08l10.82-58.25h8.74l10.9,58.25h-6.57l-2.16-12.4ZM612.73,309.86l-5.82-32.78-5.66,32.78h11.48Z"/><path class="cls-2" d="M627.86,323.26c0-1.44.49-2.65,1.46-3.62.97-.97,2.15-1.46,3.53-1.46s2.65.49,3.62,1.46,1.46,2.18,1.46,3.62-.49,2.56-1.46,3.53c-.97.97-2.18,1.46-3.62,1.46s-2.56-.49-3.53-1.46c-.97-.97-1.46-2.15-1.46-3.53Z"/><path class="cls-1" d="M658.89,315.02v-32.54c0-8.49,4.58-13.65,12.65-13.65s12.81,5.16,12.81,13.65v5.99h-4.91v-6.24c0-5.66-3.08-8.74-7.82-8.74s-7.57,3.08-7.57,8.74v33.12c0,5.66,2.91,8.65,7.57,8.65s7.82-3,7.82-8.65v-7.91h4.91v7.57c0,8.57-4.58,13.73-12.81,13.73s-12.65-5.16-12.65-13.73Z"/><path class="cls-1" d="M691.34,269.67h12.4c9.07,0,12.9,4.08,12.9,13.23v3.58c0,6.49-2.25,10.4-7.07,11.73v.17c5.08,1.17,7.07,5.08,7.07,11.98v10.57c0,2.5.17,4.99.83,6.99h-5.24c-.41-1.66-.75-3.5-.75-7.07v-10.73c0-6.74-2.5-9.07-8.65-9.07h-6.32v26.88h-5.16v-58.25ZM702.74,296.21c5.91,0,8.74-2.5,8.74-8.82v-4.08c0-6.32-2.25-8.99-7.9-8.99h-7.07v21.88h6.24Z"/><path class="cls-1" d="M724.53,269.67h5.16v58.25h-5.16v-58.25Z"/><path class="cls-1" d="M757.82,315.02h-14.89l-2.41,12.9h-4.91l11.4-58.25h6.99l11.57,58.25h-5.24l-2.5-12.9ZM756.99,310.44l-6.66-34.45-6.49,34.45h13.15Z"/><path class="cls-2" d="M771.21,323.26c0-1.44.49-2.65,1.46-3.62.97-.97,2.15-1.46,3.53-1.46s2.65.49,3.62,1.46,1.46,2.18,1.46,3.62-.49,2.56-1.46,3.53c-.97.97-2.18,1.46-3.62,1.46s-2.56-.49-3.53-1.46c-.97-.97-1.46-2.15-1.46-3.53Z"/></g></svg>