<?xml version="1.0" encoding="UTF-8"?><svg id="Camada_2" xmlns="http://www.w3.org/2000/svg" viewBox="0 0 307.45 44.54"><defs><style>.cls-1{fill:#f98200;}</style></defs><g id="Camada_1-2"><path class="cls-1" d="M0,34.21V10.33C0,3.84,3.46,0,9.65,0s9.65,3.84,9.65,10.33v4.45h-4.58v-4.76c0-3.71-1.92-5.63-4.95-5.63s-4.95,1.92-4.95,5.63v24.5c0,3.71,1.92,5.63,4.95,5.63s4.95-1.92,4.95-5.63v-6.06h4.58v5.75c0,6.43-3.4,10.33-9.65,10.33S0,40.64,0,34.21Z"/><path class="cls-1" d="M29.94,33.84V10.64c0-6.87,3.53-10.64,9.9-10.64s9.96,3.77,9.96,10.64v23.2c0,6.87-3.53,10.7-9.96,10.7s-9.9-3.83-9.9-10.7ZM44.97,34.15V10.33c0-4.08-1.86-5.94-5.14-5.94s-5.07,1.86-5.07,5.94v23.82c0,4.14,1.86,6,5.07,6s5.14-1.86,5.14-6Z"/><path class="cls-1" d="M61.35.62h6.99l6.37,34.58L81.02.62h7.05v43.3h-4.64V7.8l-6.87,36.13h-4.08l-6.87-36.13v36.13h-4.27V.62Z"/><path class="cls-1" d="M100.13.62h4.83v43.3h-4.83V.62Z"/><path class="cls-1" d="M117.02.62h6.19l9.77,30.93V.62h4.39v43.3h-5.01l-10.95-35.2v35.2h-4.39V.62Z"/><path class="cls-1" d="M148.99,33.84V10.64c0-6.87,3.4-10.64,9.77-10.64s9.84,3.77,9.84,10.64v3.53h-4.58v-3.83c0-4.08-1.86-5.94-5.14-5.94s-5.07,1.86-5.07,5.94v23.88c0,4.14,1.86,5.94,5.07,5.94s5.14-1.79,5.14-5.94v-9.71h-4.76v-4.39h9.34v13.73c0,6.87-3.4,10.7-9.84,10.7s-9.77-3.83-9.77-10.7Z"/><path class="cls-1" d="M195.01,34.02v-2.41h4.58v2.78c0,3.9,1.92,5.75,5.01,5.75s5.07-1.86,5.07-5.81-1.67-6.56-6.68-10.7c-6-4.95-7.98-8.41-7.98-13.3,0-6.5,3.46-10.33,9.71-10.33s9.53,3.84,9.53,10.46v1.73h-4.58v-2.04c0-3.9-1.79-5.75-4.95-5.75s-4.95,1.86-4.95,5.63,1.73,6.06,6.87,10.27c5.94,4.95,7.86,8.41,7.86,13.67,0,6.74-3.53,10.58-9.84,10.58s-9.65-3.83-9.65-10.52Z"/><path class="cls-1" d="M224.76,33.84V10.64c0-6.87,3.53-10.64,9.9-10.64s9.96,3.77,9.96,10.64v23.2c0,6.87-3.53,10.7-9.96,10.7s-9.9-3.83-9.9-10.7ZM239.79,34.15V10.33c0-4.08-1.86-5.94-5.14-5.94s-5.07,1.86-5.07,5.94v23.82c0,4.14,1.86,6,5.07,6s5.14-1.86,5.14-6Z"/><path class="cls-1" d="M255.68,33.84V10.64c0-6.87,3.53-10.64,9.9-10.64s9.96,3.77,9.96,10.64v23.2c0,6.87-3.53,10.7-9.96,10.7s-9.9-3.83-9.9-10.7ZM270.71,34.15V10.33c0-4.08-1.86-5.94-5.14-5.94s-5.07,1.86-5.07,5.94v23.82c0,4.14,1.86,6,5.07,6s5.14-1.86,5.14-6Z"/><path class="cls-1" d="M287.1.62h6.19l9.77,30.93V.62h4.39v43.3h-5.01l-10.95-35.2v35.2h-4.39V.62Z"/></g></svg>