<?xml version="1.0" encoding="UTF-8"?><svg id="Camada_2" xmlns="http://www.w3.org/2000/svg" viewBox="0 0 158.67 57.73"><defs><style>.cls-1,.cls-2{fill:#f98200;}.cls-2{fill-rule:evenodd;}</style></defs><g id="Camada_1-2"><path class="cls-2" d="M29.03,0C13,0,0,13,0,29.03c0,14.55,10.71,26.6,24.67,28.7v-20.39h-7.25v-8.25h7.25v-6.27c.04-3.7,1.08-6.53,3.11-8.48,2.03-1.95,4.79-2.94,8.29-2.96,1.54.01,3.08.11,4.62.29.47.06.85.11,1.17.15v7.37h-3.52c-1.75.05-2.97.51-3.67,1.39-.69.88-1.05,1.98-1,3.1v5.4h8.03l-1.3,8.25h-6.74v20.34c13.83-2.22,24.39-14.2,24.39-28.66C58.05,13,45.06,0,29.03,0Z"/><path class="cls-2" d="M133.47.75h-6c-13.92,0-25.2,11.28-25.2,25.2v6c0,13.92,11.28,25.2,25.2,25.2h6c13.92,0,25.2-11.28,25.2-25.2v-6c0-13.92-11.28-25.2-25.2-25.2ZM130.47,39.8c-5.99,0-10.85-4.86-10.85-10.85s4.86-10.85,10.85-10.85,10.85,4.86,10.85,10.85-4.86,10.85-10.85,10.85ZM142.56,18.14c-1.6,0-2.89-1.29-2.89-2.89s1.29-2.89,2.89-2.89,2.89,1.29,2.89,2.89-1.29,2.89-2.89,2.89Z"/><circle class="cls-1" cx="130.47" cy="28.95" r="7.26" transform="translate(-3.16 30.75) rotate(-13.28)"/></g></svg>